# xmcd CD database file
#
# Track frame offsets:
#	150
#	16713
#	37240
#	54514
#	72477
#	90755
#	108595
#	127848
#	147465
#	161896
#	176953
#
# Disc length: 4360 seconds
#
# Revision: 1
# Processed by: cddbd v1.5.2PL0 Copyright (c) Steve Scherf et al.
# Submitted via: CDex 1.70beta3
#
DISCID=9811060b
DTITLE=石渡太輔 - GULTY GEAR SOUND COMPLETE BOX  BONUS DISC - ARRANGE TRACKS PLUS
DYEAR=2005
DGENRE=Game
TTITLE0=Conclusion <Sol Vs Ky's Theme>
TTITLE1=The March Of The Wicked King <Axl's Theme>
TTITLE2=Suspicious Cook <Baldhead's Theme>
TTITLE3=A Fixed Idea <Testament's Theme>
TTITLE4=Pride And Glory <Kliff's Theme>
TTITLE5=Unidentified Child <May's Theme>
TTITLE6=Meet Again <Justice's Theme>
TTITLE7=Love Letter From... <Sol,Ky,Chipp and Axl's Staff Roll>
TTITLE8=Keep in gates <A.B.A's Theme>
TTITLE9=Get down to bussiness <Order Sol's Theme>
TTITLE10=The ZADANKAI
EXTD=YEAR: 2005
EXTT0=
EXTT1=
EXTT2=
EXTT3=
EXTT4=
EXTT5=
EXTT6=
EXTT7=
EXTT8=
EXTT9=
EXTT10=
PLAYORDER=
